<svg xmlns="http://www.w3.org/2000/svg" viewBox="0 0 100 100" role="img" aria-label="游侠头像"><circle cx="50" cy="50" r="47" fill="#DFF0E4"/><g clip-path="url(#av14)"><path d="M50 64c19 0 34 17 34 40H16c0-23 15-40 34-40z" fill="#7FB894"/><path d="M50 9C57 9 65 18 70 30c5 10 8 20 8 26 0 13-4 21-15 27l-13-5-13 5c-11-6-15-14-15-27 0-6 3-16 8-26C35 18 43 9 50 9z" fill="#2F7D4F" stroke="#7FB894" stroke-width="2" stroke-linejoin="round"/><ellipse cx="50" cy="46" rx="21" ry="22" fill="#FBEBD9" stroke="#C9A583" stroke-width="2.2"/><path d="M38 39q4.5-3.8 9 0M53 39q4.5-3.8 9 0" fill="none" stroke="#C9A583" stroke-width="1.6" stroke-linecap="round"/><circle cx="42.5" cy="47" r="3.5" fill="#2A2018"/><circle cx="57.5" cy="47" r="3.5" fill="#2A2018"/><circle cx="41.3" cy="45.7" r="1.25" fill="#FFF"/><circle cx="56.3" cy="45.7" r="1.25" fill="#FFF"/><path d="M50 50.6v3.4" stroke="#C9A583" stroke-width="1.6" stroke-linecap="round"/><path d="M45.6 57.4q4.4 3.8 8.8 0" fill="none" stroke="#2A2018" stroke-width="1.9" stroke-linecap="round"/><ellipse cx="36" cy="54" rx="4.6" ry="2.8" fill="#E8A0AE" opacity=".55"/><ellipse cx="64" cy="54" rx="4.6" ry="2.8" fill="#E8A0AE" opacity=".55"/><ellipse cx="50" cy="46" rx="22.8" ry="23.8" fill="none" stroke="#7FB894" stroke-width="2.2"/><path d="M50 9c3.4 0 6.4 2.6 8.6 7.4" fill="none" stroke="#7FB894" stroke-width="2" stroke-linecap="round" opacity=".85"/></g><circle cx="50" cy="50" r="47" fill="none" stroke="#7FB894" stroke-width="2"/><defs><clipPath id="av14"><circle cx="50" cy="50" r="46"/></clipPath></defs></svg>